<svg xmlns="http://www.w3.org/2000/svg" viewBox="0 0 36 36" xmlns:xlink="http://www.w3.org/1999/xlink" xml:space="preserve" width="100%" height="100%"><path xmlns="http://www.w3.org/2000/svg" d="M18 2a16 16 0 1 0 16 16A16 16 0 0 0 18 2zm0 30a14 14 0 1 1 14-14 14 14 0 0 1-14 14z" class="clr-i-outline clr-i-outline-path-1" fill='#33D69F'></path><path xmlns="http://www.w3.org/2000/svg" d="M28 12.1a1 1 0 0 0-1.41 0l-11.1 11.05-6-6A1 1 0 0 0 8 18.53L15.49 26 28 13.52a1 1 0 0 0 0-1.42z" class="clr-i-outline clr-i-outline-path-2" fill='#33D69F'></path><path xmlns="http://www.w3.org/2000/svg" fill="none" d="M0 0h36v36H0z"></path></svg>